# xmcd CD database file
#
# Track frame offsets:
#	150
#	692
#	9929
#	17928
#	26364
#	28936
#	42152
#	46201
#	56674
#	67560
#	68120
#	84796
#	97061
#	106429
#	121069
#	128263
#	140954
#	145194
#
# Disc length: 1941 seconds
#
# Revision: 0
# Processed by: cddbd v1.5PL3 Copyright (c) Steve Scherf et al.
# Submitted via: CDex 1.51
#
DISCID=e1079312
DTITLE=Ophir Prison Marching Kazoo Band - Jailbreak
DYEAR=2001
DGENRE=Jazz
TTITLE0=Introduction 01
TTITLE1=Just a Gigolo 02
TTITLE2=Ballgame 03
TTITLE3=Leap Frog 04
TTITLE4=Tuning Up 05
TTITLE5=Glorious Beer 06
TTITLE6=Glorious Beer (Intro) 07
TTITLE7=The Sound of Beer 08
TTITLE8=Zoot Suit Riot 09
TTITLE9=Interlude 10
TTITLE10=Stars and Stripes 11
TTITLE11=Sing Sing Sing 12
TTITLE12=How High the Moon 13
TTITLE13=Mickey Mouse 14
TTITLE14=Opus One 15
TTITLE15=Saints in Concert 16
TTITLE16=Allegaroo 17
TTITLE17=Epilogue 18
EXTD=YEAR: 2001
EXTT0=
EXTT1=
EXTT2=
EXTT3=
EXTT4=
EXTT5=
EXTT6=
EXTT7=
EXTT8=
EXTT9=
EXTT10=
EXTT11=
EXTT12=
EXTT13=
EXTT14=
EXTT15=
EXTT16=
EXTT17=
PLAYORDER=
